<svg width="136" height="136" viewBox="0 0 136 136" fill="none" xmlns="http://www.w3.org/2000/svg">
<g clip-path="url(#clip0_2465_136)">
<rect width="136" height="136" fill="#14142A"/>
<path d="M137.308 62.4252L134.947 64.1815L148 75.4429C141.177 74.7903 135.445 69.2248 129.583 65.9733L128.42 70.6963C126.237 69.9605 122.178 62.9473 121.644 62.6507C119.935 61.7013 115.865 63.0304 113.599 61.2029C113.124 72.7255 109.611 86.0161 99.94 93.2429C86.6612 103.163 73.7977 100.695 58.0151 104.718C54.906 105.513 52.2479 106.023 50.0881 108.658L49.5067 105.121L34.08 107.471C36.5839 102.321 32.9171 101.787 30.52 98.0015C31.9084 96.7911 36.8449 102.487 39.4675 102.713C43.6327 103.092 52.0224 100.126 57.2081 101.538L70.8667 99.1881C44.7007 98.9033 27.1261 73.8647 25.7733 49.3481C18.0244 48.2445 7.14267 50.7009 2.04 57.0377C-3.06267 63.3745 3.83187 68.4772 3.83187 75.4429L-17.5519 54.1067L-30 46.9985C-18.3825 47.7105 -6.33787 44.6252 3.20293 38.0867L-2.70667 31.5719C2.52653 33.2332 6.83413 37.4577 12.4115 38.3952C17.17 39.2021 22.1659 38.4308 26.96 38.6681L22.8067 28L36.1092 40.8041C70.748 43.3673 104.271 52.4928 137.32 62.4133L137.308 62.4252ZM64.8028 55.412L35.2785 51.7333C37.6875 78.7537 57.9676 95.2721 85.4152 90.6085C97.5785 88.5437 105.256 74.1257 103.975 62.532L83.9319 58.8533C84.5608 91.1307 61.5395 83.3699 64.8147 55.4239L64.8028 55.412ZM81.4755 57.726L67.3067 55.2933C63.5331 81.7441 83.3148 87.452 81.4755 57.726Z" fill="#DD1617"/>
</g>
<defs>
<clipPath id="clip0_2465_136">
<rect width="136" height="136" fill="white"/>
</clipPath>
</defs>
</svg>
